<mxfile host="app.diagrams.net" modified="2023-06-06T18:54:33.994Z" agent="Mozilla/5.0 (Windows NT 10.0; Win64; x64) AppleWebKit/537.36 (KHTML, like Gecko) Chrome/113.0.0.0 Safari/537.36" etag="1YmV36edlP35s9knM147" version="21.3.4" type="device">
  <diagram name="Page-1" id="2YBvvXClWsGukQMizWep">
    <mxGraphModel dx="472" dy="754" grid="1" gridSize="10" guides="1" tooltips="1" connect="1" arrows="1" fold="1" page="1" pageScale="1" pageWidth="850" pageHeight="1100" math="0" shadow="0">
      <root>
        <mxCell id="0" />
        <mxCell id="1" parent="0" />
        <mxCell id="WTr-YErn7KuiMZCKr8w0-1" value="CredentialsChecker" style="shape=umlLifeline;perimeter=lifelinePerimeter;whiteSpace=wrap;html=1;container=0;dropTarget=0;collapsible=0;recursiveResize=0;outlineConnect=0;portConstraint=eastwest;newEdgeStyle={&quot;edgeStyle&quot;:&quot;elbowEdgeStyle&quot;,&quot;elbow&quot;:&quot;vertical&quot;,&quot;curved&quot;:0,&quot;rounded&quot;:0};" vertex="1" parent="1">
          <mxGeometry x="290" y="210" width="125" height="340" as="geometry" />
        </mxCell>
        <mxCell id="WTr-YErn7KuiMZCKr8w0-2" value="doFilter(request, response, chain)" style="html=1;verticalAlign=bottom;startArrow=oval;endArrow=block;startSize=8;edgeStyle=elbowEdgeStyle;elbow=vertical;curved=0;rounded=0;" edge="1" parent="WTr-YErn7KuiMZCKr8w0-1" target="WTr-YErn7KuiMZCKr8w0-3">
          <mxGeometry relative="1" as="geometry">
            <mxPoint x="-130" y="70" as="sourcePoint" />
            <mxPoint x="45" y="70" as="targetPoint" />
          </mxGeometry>
        </mxCell>
        <mxCell id="WTr-YErn7KuiMZCKr8w0-3" value="" style="html=1;points=[];perimeter=orthogonalPerimeter;outlineConnect=0;targetShapes=umlLifeline;portConstraint=eastwest;newEdgeStyle={&quot;edgeStyle&quot;:&quot;elbowEdgeStyle&quot;,&quot;elbow&quot;:&quot;vertical&quot;,&quot;curved&quot;:0,&quot;rounded&quot;:0};" vertex="1" parent="WTr-YErn7KuiMZCKr8w0-1">
          <mxGeometry x="58" y="70" width="10" height="250" as="geometry" />
        </mxCell>
        <mxCell id="WTr-YErn7KuiMZCKr8w0-4" value="Session" style="shape=umlLifeline;perimeter=lifelinePerimeter;whiteSpace=wrap;html=1;container=0;dropTarget=0;collapsible=0;recursiveResize=0;outlineConnect=0;portConstraint=eastwest;newEdgeStyle={&quot;edgeStyle&quot;:&quot;elbowEdgeStyle&quot;,&quot;elbow&quot;:&quot;vertical&quot;,&quot;curved&quot;:0,&quot;rounded&quot;:0};" vertex="1" parent="1">
          <mxGeometry x="460" y="210" width="100" height="340" as="geometry" />
        </mxCell>
        <mxCell id="WTr-YErn7KuiMZCKr8w0-5" value="" style="html=1;points=[];perimeter=orthogonalPerimeter;outlineConnect=0;targetShapes=umlLifeline;portConstraint=eastwest;newEdgeStyle={&quot;edgeStyle&quot;:&quot;elbowEdgeStyle&quot;,&quot;elbow&quot;:&quot;vertical&quot;,&quot;curved&quot;:0,&quot;rounded&quot;:0};" vertex="1" parent="WTr-YErn7KuiMZCKr8w0-4">
          <mxGeometry x="45" y="90" width="10" height="30" as="geometry" />
        </mxCell>
        <mxCell id="WTr-YErn7KuiMZCKr8w0-6" value="getAttribute(&quot;user&quot;)" style="html=1;verticalAlign=bottom;endArrow=block;edgeStyle=elbowEdgeStyle;elbow=vertical;curved=0;rounded=0;" edge="1" parent="WTr-YErn7KuiMZCKr8w0-4" target="WTr-YErn7KuiMZCKr8w0-5">
          <mxGeometry relative="1" as="geometry">
            <mxPoint x="-102" y="90" as="sourcePoint" />
            <Array as="points">
              <mxPoint x="-40" y="90" />
              <mxPoint x="-60" y="100" />
              <mxPoint x="-40" y="90" />
            </Array>
            <mxPoint x="70" y="90" as="targetPoint" />
          </mxGeometry>
        </mxCell>
        <mxCell id="WTr-YErn7KuiMZCKr8w0-7" value="user" style="html=1;verticalAlign=bottom;endArrow=open;dashed=1;endSize=8;edgeStyle=elbowEdgeStyle;elbow=vertical;curved=0;rounded=0;" edge="1" parent="WTr-YErn7KuiMZCKr8w0-4" source="WTr-YErn7KuiMZCKr8w0-5">
          <mxGeometry x="0.0031" relative="1" as="geometry">
            <mxPoint x="-102" y="120" as="targetPoint" />
            <Array as="points">
              <mxPoint x="33" y="120" />
              <mxPoint x="-22" y="120" />
            </Array>
            <mxPoint x="48" y="120" as="sourcePoint" />
            <mxPoint as="offset" />
          </mxGeometry>
        </mxCell>
        <mxCell id="WTr-YErn7KuiMZCKr8w0-8" value="alt" style="shape=umlFrame;whiteSpace=wrap;html=1;pointerEvents=0;width=55;height=20;" vertex="1" parent="1">
          <mxGeometry x="130" y="410" width="810" height="90" as="geometry" />
        </mxCell>
        <mxCell id="WTr-YErn7KuiMZCKr8w0-9" value="!role.equals(&quot;Student&quot;)" style="text;html=1;align=center;verticalAlign=middle;whiteSpace=wrap;rounded=0;fontStyle=3;fontColor=#FF8000;" vertex="1" parent="1">
          <mxGeometry x="290" y="420" width="150" height="20" as="geometry" />
        </mxCell>
        <mxCell id="WTr-YErn7KuiMZCKr8w0-10" value="redirect" style="html=1;verticalAlign=bottom;endArrow=block;edgeStyle=elbowEdgeStyle;elbow=vertical;curved=0;rounded=0;" edge="1" parent="1" source="WTr-YErn7KuiMZCKr8w0-3" target="WTr-YErn7KuiMZCKr8w0-15">
          <mxGeometry relative="1" as="geometry">
            <mxPoint x="360" y="450" as="sourcePoint" />
            <Array as="points">
              <mxPoint x="422" y="450" />
              <mxPoint x="402" y="460" />
              <mxPoint x="422" y="450" />
            </Array>
            <mxPoint x="507" y="450" as="targetPoint" />
          </mxGeometry>
        </mxCell>
        <mxCell id="WTr-YErn7KuiMZCKr8w0-11" value="User" style="shape=umlLifeline;perimeter=lifelinePerimeter;whiteSpace=wrap;html=1;container=0;dropTarget=0;collapsible=0;recursiveResize=0;outlineConnect=0;portConstraint=eastwest;newEdgeStyle={&quot;edgeStyle&quot;:&quot;elbowEdgeStyle&quot;,&quot;elbow&quot;:&quot;vertical&quot;,&quot;curved&quot;:0,&quot;rounded&quot;:0};" vertex="1" parent="1">
          <mxGeometry x="580" y="210" width="100" height="340" as="geometry" />
        </mxCell>
        <mxCell id="WTr-YErn7KuiMZCKr8w0-12" value="" style="html=1;points=[];perimeter=orthogonalPerimeter;outlineConnect=0;targetShapes=umlLifeline;portConstraint=eastwest;newEdgeStyle={&quot;edgeStyle&quot;:&quot;elbowEdgeStyle&quot;,&quot;elbow&quot;:&quot;vertical&quot;,&quot;curved&quot;:0,&quot;rounded&quot;:0};" vertex="1" parent="WTr-YErn7KuiMZCKr8w0-11">
          <mxGeometry x="45" y="150" width="10" height="30" as="geometry" />
        </mxCell>
        <mxCell id="WTr-YErn7KuiMZCKr8w0-13" value="" style="html=1;verticalAlign=bottom;endArrow=open;dashed=1;endSize=8;edgeStyle=elbowEdgeStyle;elbow=vertical;curved=0;rounded=0;" edge="1" parent="1" source="WTr-YErn7KuiMZCKr8w0-3">
          <mxGeometry x="0.0031" relative="1" as="geometry">
            <mxPoint x="160" y="470" as="targetPoint" />
            <Array as="points">
              <mxPoint x="335" y="469.5" />
              <mxPoint x="280" y="469.5" />
            </Array>
            <mxPoint x="347" y="469.5" as="sourcePoint" />
            <mxPoint as="offset" />
          </mxGeometry>
        </mxCell>
        <mxCell id="WTr-YErn7KuiMZCKr8w0-14" value="doFilter(request, response)" style="html=1;verticalAlign=bottom;endArrow=block;edgeStyle=elbowEdgeStyle;elbow=vertical;curved=0;rounded=0;" edge="1" parent="1" source="WTr-YErn7KuiMZCKr8w0-3" target="WTr-YErn7KuiMZCKr8w0-18">
          <mxGeometry relative="1" as="geometry">
            <mxPoint x="360" y="520" as="sourcePoint" />
            <Array as="points">
              <mxPoint x="422" y="520" />
              <mxPoint x="402" y="530" />
              <mxPoint x="422" y="520" />
            </Array>
            <mxPoint x="507" y="520" as="targetPoint" />
          </mxGeometry>
        </mxCell>
        <mxCell id="WTr-YErn7KuiMZCKr8w0-15" value="Logout" style="shape=umlLifeline;perimeter=lifelinePerimeter;whiteSpace=wrap;html=1;container=0;dropTarget=0;collapsible=0;recursiveResize=0;outlineConnect=0;portConstraint=eastwest;newEdgeStyle={&quot;edgeStyle&quot;:&quot;elbowEdgeStyle&quot;,&quot;elbow&quot;:&quot;vertical&quot;,&quot;curved&quot;:0,&quot;rounded&quot;:0};" vertex="1" parent="1">
          <mxGeometry x="700" y="210" width="100" height="340" as="geometry" />
        </mxCell>
        <mxCell id="WTr-YErn7KuiMZCKr8w0-16" value="getRole()" style="html=1;verticalAlign=bottom;endArrow=block;edgeStyle=elbowEdgeStyle;elbow=vertical;curved=0;rounded=0;" edge="1" parent="1" target="WTr-YErn7KuiMZCKr8w0-12">
          <mxGeometry relative="1" as="geometry">
            <mxPoint x="350" y="360" as="sourcePoint" />
            <Array as="points">
              <mxPoint x="422" y="360" />
              <mxPoint x="402" y="370" />
              <mxPoint x="422" y="360" />
            </Array>
            <mxPoint x="507" y="360" as="targetPoint" />
          </mxGeometry>
        </mxCell>
        <mxCell id="WTr-YErn7KuiMZCKr8w0-17" value="role" style="html=1;verticalAlign=bottom;endArrow=open;dashed=1;endSize=8;edgeStyle=elbowEdgeStyle;elbow=vertical;curved=0;rounded=0;" edge="1" parent="1" source="WTr-YErn7KuiMZCKr8w0-12" target="WTr-YErn7KuiMZCKr8w0-3">
          <mxGeometry x="0.0031" relative="1" as="geometry">
            <mxPoint x="480" y="390" as="targetPoint" />
            <Array as="points">
              <mxPoint x="615" y="390" />
              <mxPoint x="560" y="390" />
            </Array>
            <mxPoint x="627" y="390" as="sourcePoint" />
            <mxPoint as="offset" />
          </mxGeometry>
        </mxCell>
        <mxCell id="WTr-YErn7KuiMZCKr8w0-18" value="Chain" style="shape=umlLifeline;perimeter=lifelinePerimeter;whiteSpace=wrap;html=1;container=0;dropTarget=0;collapsible=0;recursiveResize=0;outlineConnect=0;portConstraint=eastwest;newEdgeStyle={&quot;edgeStyle&quot;:&quot;elbowEdgeStyle&quot;,&quot;elbow&quot;:&quot;vertical&quot;,&quot;curved&quot;:0,&quot;rounded&quot;:0};" vertex="1" parent="1">
          <mxGeometry x="820" y="210" width="100" height="340" as="geometry" />
        </mxCell>
      </root>
    </mxGraphModel>
  </diagram>
</mxfile>
